HIERARCHY
ROOT Hips
{
  OFFSET 0 89.5177 0.535
  CHANNELS 6 Xposition Yposition Zposition Zrotation Xrotation Yrotation
  JOINT Spine
  {
    OFFSET 12.0259 -0.162855 1.69034e-005
    CHANNELS 3 Zrotation Xrotation Yrotation
    JOINT Spine1
    {
      OFFSET 15.3169 -0.0121922 0
      CHANNELS 3 Zrotation Xrotation Yrotation
      JOINT Spine2
      {
        OFFSET 15.3176 -0.0121908 0
        CHANNELS 3 Zrotation Xrotation Yrotation
        JOINT Neck
        {
          OFFSET 19.9142 1.56338 0
          CHANNELS 3 Zrotation Xrotation Yrotation
          JOINT Head
          {
            OFFSET 6.92651 0 0
            CHANNELS 3 Zrotation Xrotation Yrotation
            End Site
            {
              OFFSET 20.7666 0 0
            }
          }
          JOINT LeftShoulder
          {
            OFFSET -6.20654 0.708824 7.28219
            CHANNELS 3 Zrotation Xrotation Yrotation
            JOINT LeftArm
            {
              OFFSET 14.108 0 -1.52588e-005
              CHANNELS 3 Zrotation Xrotation Yrotation
              JOINT LeftForeArm
              {
                OFFSET 28.5802 0 0
                CHANNELS 3 Zrotation Xrotation Yrotation
                JOINT LeftHand
                {
                  OFFSET 27.092 0 0
                  CHANNELS 3 Zrotation Xrotation Yrotation
                  End Site
                  {
                    OFFSET 9.55928 -0.186424 0.145352
                  }
                }
              }
            }
          }
          JOINT RightShoulder
          {
            OFFSET -6.20654 0.708866 -7.28218
            CHANNELS 3 Zrotation Xrotation Yrotation
            JOINT RightArm
            {
              OFFSET 14.108 0 1.52588e-005
              CHANNELS 3 Zrotation Xrotation Yrotation
              JOINT RightForeArm
              {
                OFFSET 28.5802 0 0
                CHANNELS 3 Zrotation Xrotation Yrotation
                JOINT RightHand
                {
                  OFFSET 27.092 0 0
                  CHANNELS 3 Zrotation Xrotation Yrotation
                  End Site
                  {
                    OFFSET 9.55929 -0.186417 -0.145354
                  }
                }
              }
            }
          }
        }
      }
    }
  }
  JOINT LeftUpLeg
  {
    OFFSET 0.005 -0.535 8.837
    CHANNELS 3 Zrotation Xrotation Yrotation
    JOINT LeftLeg
    {
      OFFSET 39.9035 0 0
      CHANNELS 3 Zrotation Xrotation Yrotation
      JOINT LeftFoot
      {
        OFFSET 39.6689 0 0
        CHANNELS 3 Zrotation Xrotation Yrotation
        JOINT LeftToe
        {
          OFFSET 10.1624 13.6296 0
          CHANNELS 3 Zrotation Xrotation Yrotation
          End Site
          {
            OFFSET 8.38147 0 0
          }
        }
      }
    }
  }
  JOINT RightUpLeg
  {
    OFFSET 0.005 -0.535 -8.837
    CHANNELS 3 Zrotation Xrotation Yrotation
    JOINT RightLeg
    {
      OFFSET 39.9035 0 0
      CHANNELS 3 Zrotation Xrotation Yrotation
      JOINT RightFoot
      {
        OFFSET 39.6689 0 0
        CHANNELS 3 Zrotation Xrotation Yrotation
        JOINT RightToe
        {
          OFFSET 10.1624 13.6296 0
          CHANNELS 3 Zrotation Xrotation Yrotation
          End Site
          {
            OFFSET 8.38147 0 0
          }
        }
      }
    }
  }
}
MOTION
Frames:	9
Frame Time:	0.0333333
434.461 88.9602 24.6904 93.3055 -78.054 4.27969 0.673156 -0.748313 -0.516954 1.33971 -1.50215 -1.02505 1.33971 -1.50215 -1.02506 -8.30669e-012 -9.0191e-006 -5.27751e-005 -11.9691 18.2238 -2.84156 -179.206 -4.9537 -80.8816 49.0985 -70.3404 51.2162 -2.01217 -6.36111e-015 1.59028e-015 -48.0878 -16.2801 -36.6931 179.928 -0.736037 84.4216 51.3292 47.9711 -49.6861 -16.6284 -3.18055e-015 -3.18055e-015 -44.6394 32.6332 47.7632 -7.61913 -1.21274 178.402 -19.8733 0 -7.95139e-016 17.7993 12.4637 -4.22052 90 4.96962e-017 3.97569e-016 -1.00463 -5.29086 174.028 -10.1856 7.95139e-016 1.78906e-015 10.0456 -6.86215 4.87684 90 0 -1.59028e-015 
434.274 88.9682 24.9327 92.7893 -78.0632 3.72785 0.698217 -0.739679 -0.558291 1.38937 -1.4856 -1.1075 1.38937 -1.4856 -1.10751 -8.3051e-012 -9.0191e-006 -5.27751e-005 -11.7258 17.8146 -3.03288 -179.191 -5.1187 -81.0054 50.0001 -70.2431 52.21 -1.89111 -4.77083e-015 -0 -48.2573 -16.2815 -36.8067 179.935 -0.703154 84.6848 51.8174 47.9933 -50.1476 -16.6898 0 -1.59028e-015 -44.334 32.9295 47.3602 -7.70791 -1.27411 178.267 -19.9818 -1.59028e-015 -0 17.7499 12.4249 -4.03691 90 1.2424e-016 -3.97569e-016 -1.1854 -5.24393 173.891 -10.4422 -7.95139e-016 1.78906e-015 9.94007 -6.8615 5.02461 90 2.48481e-017 1.59028e-015 
434.116 88.9743 25.1916 92.3934 -78.0951 3.28036 0.722706 -0.740631 -0.623658 1.43749 -1.48855 -1.23792 1.43749 -1.48855 -1.23793 -8.30828e-012 -9.0191e-006 -5.27751e-005 -11.7532 17.4336 -2.97501 -179.196 -5.19036 -81.1784 51.3786 -70.5054 53.3799 -1.65908 1.59028e-015 3.18055e-015 -48.4772 -16.2217 -36.9345 179.936 -0.71368 84.8431 52.212 48.0255 -50.5485 -16.6743 -3.18055e-015 -2.38542e-015 -43.8709 33.3007 46.7245 -7.80337 -1.36868 178.145 -20.0338 4.77083e-015 1.59028e-015 17.6092 12.293 -3.78893 90 -2.98177e-016 -0 -1.38049 -5.22324 173.787 -10.6324 -1.59028e-015 -9.93923e-016 9.79805 -6.88755 5.15676 90 2.48481e-017 -1.59028e-015 
434.001 88.9792 25.4677 92.268 -78.1457 3.08099 0.750219 -0.737939 -0.681182 1.49179 -1.48396 -1.35267 1.49179 -1.48396 -1.35268 -8.30907e-012 -9.0191e-006 -5.27751e-005 -12.0901 16.9186 -2.87682 -179.199 -5.22588 -81.275 52.0085 -70.6652 53.8271 -1.59157 0 -0 -48.8211 -16.2387 -37.4314 179.937 -0.710349 84.9639 52.17 47.8338 -50.6171 -16.853 -1.27222e-014 -2.38542e-015 -44.8332 32.6266 46.8175 -8.01555 -1.33268 178.097 -20.1916 -1.59028e-015 -7.95139e-016 17.5888 12.3196 -3.63678 90 -6.21202e-016 -0 -1.5972 -5.26152 173.735 -10.7141 7.95139e-016 7.95139e-016 9.61395 -6.99601 5.25773 90 4.96962e-017 3.18055e-015 
433.935 88.9857 25.7638 92.5893 -78.2085 3.28944 0.774715 -0.733917 -0.74581 1.54001 -1.47732 -1.48165 1.54001 -1.47732 -1.48166 -8.30828e-012 -9.0191e-006 -5.27751e-005 -12.6786 16.3615 -2.60895 -179.198 -5.32995 -81.4293 52.4817 -70.8154 54.1958 -1.64004 1.59028e-015 -3.18055e-015 -49.2285 -16.12 -37.6055 179.935 -0.743475 84.9696 52.0653 47.6875 -50.5696 -17.1633 -3.18055e-015 -7.95139e-016 -45.925 31.9134 47.1139 -8.33424 -1.23342 178.112 -20.3548 3.18055e-015 -0 17.6062 12.3296 -3.46111 90 -2.98177e-016 7.95139e-016 -1.88525 -5.29115 173.749 -10.7162 7.95139e-016 3.97569e-016 9.37282 -7.09882 5.32527 90 -2.48481e-017 1.59028e-015 
433.897 88.992 26.0706 93.104 -78.2828 3.65355 0.797681 -0.732632 -0.806312 1.58518 -1.47587 -1.60238 1.58518 -1.47587 -1.60239 -8.30987e-012 -9.0191e-006 -5.27751e-005 -13.3321 15.7604 -2.39867 -179.188 -5.46999 -81.5385 53.1278 -71.1632 54.8244 -1.72235 0 3.18055e-015 -49.6996 -16.0172 -37.8928 179.937 -0.724912 85.0077 52.1638 47.6609 -50.7454 -17.5067 0 -1.59028e-015 -46.4113 31.7155 47.2634 -8.63795 -1.38157 178.131 -20.3963 1.59028e-015 3.97569e-016 17.5046 12.132 -3.12656 90 2.23633e-016 -7.95139e-016 -2.1203 -5.36821 173.825 -10.5159 -7.95139e-016 -1.98785e-016 9.05037 -7.26864 5.37518 90 -4.96962e-017 -0 
433.896 89.0005 26.3917 93.7614 -78.3688 4.13977 0.807185 -0.719943 -0.877169 1.60345 -1.45162 -1.74416 1.60345 -1.45162 -1.74417 -8.30907e-012 -9.0191e-006 -5.27751e-005 -13.8911 15.1472 -2.14966 -179.201 -5.47661 -81.6868 53.3544 -71.4205 54.9735 -1.84537 -1.59028e-015 1.59028e-015 -50.0041 -15.8528 -37.8753 179.936 -0.728566 85.0062 52.1484 47.5472 -50.7448 -17.7133 9.54166e-015 -0 -46.8752 31.539 47.3048 -8.99528 -1.48624 178.202 -20.4637 -3.18055e-015 -7.95139e-016 17.4286 11.9768 -2.83305 90 -4.96962e-017 7.95139e-016 -2.25911 -5.48189 173.952 -10.0496 7.95139e-016 1.19271e-015 8.62403 -7.48569 5.40816 90 0 1.59028e-015 
433.919 89.0084 26.6969 94.3814 -78.5513 4.57476 0.833955 -0.705442 -0.947542 1.65633 -1.42403 -1.88477 1.65633 -1.42403 -1.88478 -8.30589e-012 -9.0191e-006 -5.27751e-005 -14.531 14.6288 -1.91609 -179.189 -5.60551 -81.7495 53.5276 -71.8376 55.2095 -1.99259 -1.59028e-015 -3.18055e-015 -50.3401 -15.706 -37.8712 179.927 -0.842185 85.0486 52.225 47.4291 -50.8284 -17.8204 1.27222e-014 -3.97569e-015 -47.1924 31.1905 47.1936 -9.28561 -1.51879 178.311 -20.5045 -3.18055e-015 -0 17.4346 11.7401 -2.46306 90 -4.72114e-016 7.95139e-016 -2.2617 -5.58014 174.126 -9.33672 0 -9.93923e-017 8.10586 -7.74143 5.42682 90 2.48481e-017 4.77083e-015 
433.963 89.0174 27.0097 95.073 -78.8021 5.06957 0.849911 -0.66827 -0.99979 1.68821 -1.35072 -1.9896 1.68821 -1.35072 -1.98961 -8.30748e-012 -9.0191e-006 -5.27751e-005 -15.0706 14.1938 -1.91231 -179.179 -5.67808 -81.754 53.775 -72.1624 55.5467 -2.17328 1.59028e-015 6.36111e-015 -50.6061 -15.4968 -37.6376 179.928 -0.834796 85.0957 52.0801 47.396 -50.751 -17.8405 -1.27222e-014 7.95139e-016 -47.6015 30.9579 47.3632 -9.50992 -1.73057 178.402 -20.3948 1.59028e-015 1.19271e-015 17.2787 11.2719 -1.95366 90 7.45443e-017 -0 -2.45096 -5.55281 174.281 -8.97067 -7.95139e-016 -0 7.75131 -7.93794 5.71702 90 2.48481e-017 -3.18055e-015 
